<svg width="700" height="699" viewBox="0 0 700 699" fill="none" xmlns="http://www.w3.org/2000/svg">
<rect x="354" width="177" height="177" rx="25" fill="#393E46"/>
<rect x="354" y="349" width="177" height="177" rx="25" fill="#393E46"/>
<rect x="523" y="177" width="177" height="177" rx="25" fill="#545454" fill-opacity="0.5"/>
<path d="M179 202C179 188.193 190.193 177 204 177H331C344.807 177 356 188.193 356 202V329C356 342.807 344.807 354 331 354H204C190.193 354 179 342.807 179 329V202Z" fill="white"/>
<path d="M179 547C179 533.193 190.193 522 204 522H331C344.807 522 356 533.193 356 547V674C356 687.807 344.807 699 331 699H204C190.193 699 179 687.807 179 674V547Z" fill="white"/>
<path d="M0 374C0 360.193 11.1929 349 25 349H152C165.807 349 177 360.193 177 374V501C177 514.807 165.807 526 152 526H25C11.1929 526 0 514.807 0 501V374Z" fill="white" fill-opacity="0.5"/>
<circle cx="443" cy="266" r="80" fill="#7304FF"/>
<circle cx="268" cy="438" r="80" fill="#0CF6FF"/>
</svg>
